<?xml version="1.0" encoding="UTF-8"?>
<svg xmlns="http://www.w3.org/2000/svg" xml:space="preserve" width="99.248mm" height="36.42mm" version="1.1" shape-rendering="geometricPrecision" text-rendering="geometricPrecision" image-rendering="optimizeQuality" fill-rule="evenodd" clip-rule="evenodd"
viewBox="0 0 9924.8 3642"
 xmlns:xlink="http://www.w3.org/1999/xlink">
 <style>
 .fill-color {
  fill: #fff;
 }
 </style>
 <g id="Camada_x0020_1">
  <metadata id="CorelCorpID_0Corel-Layer"/>
  <g id="_2309844332464">
   <path class="fill-color" fill-rule="nonzero" d="M7716.67 1497.12l0 -1285.67 -530.2 152.55 0 1314.72c-340.45,127.67 -666.22,193.19 -959.19,216.25 0,0 0,0 -0.07,0 -116.65,9.19 -227.99,11.43 -333.14,8.4 -486.38,-26.56 -863.13,-211.42 -943.13,-253.49 -4.68,-2.52 -9.3,-5.03 -13.98,-7.51 -1.21,-0.66 -1.87,-1.03 -1.87,-1.03l-0.17 0c-30.42,-15.89 -61.73,-31.05 -93.74,-45.27 -24.53,-9.62 -54.02,-21.81 -90.6,-37.8 -0.38,-0.17 -0.76,-0.31 -1.11,-0.44 -83.95,-32.73 -167.94,-59.88 -243.05,-81.62 -344.61,-87.09 -705.41,-75.51 -841.67,-66.83 -26.01,1.99 -51.95,4.3 -77.86,6.75l0.04 -0.07c-1.25,0.14 -2.45,0.28 -3.69,0.42 -113.62,10.85 -226,26.07 -335.79,44.33 -0.76,0.14 -1.52,0.25 -2.31,0.38 -8.61,1.45 -17.19,2.9 -25.77,4.34 -669.23,111.35 -1241.64,316.71 -1378.89,368.18l0 -198.58c1372.45,-526.37 2154.62,-499.64 2516.94,-427.57l0.41 -0.1c0,0 1.56,0.38 3.9,0.93 68.18,13.75 121.44,28.94 160.51,42.37 172.15,49.03 446.55,137.88 660.83,257.35l0.07 0c0,0 0.48,0.28 0.69,0.42 5.03,2.82 9.99,5.65 14.95,8.51 84.41,46.71 508.91,259.9 1050.76,151.17 -175.22,-25.29 -377.1,-149.45 -546.05,-278.06 -130.84,-104.9 -257.28,-220.17 -361.67,-318.87 -0.06,0 -0.13,-0.11 -0.13,-0.11 -100.94,-95.39 -181.22,-175.21 -224.28,-214.45 -8.75,-8.2 -17.57,-16.2 -26.32,-24.16 -2.62,-2.44 -4.06,-3.78 -4.06,-3.78l-0.07 0c-99.36,-89.09 -200.47,-159.55 -301.35,-215.08 -1.99,-1.17 -4.16,-2.21 -6.16,-3.38 -41,-22.32 -81.93,-42.17 -122.68,-59.77 -569.99,-229.24 -1486.35,-20.5 -1724.58,40.41 -487.1,128.85 -1091.71,310.54 -1091.71,310.54l0 -203.36c907.96,-290.53 1543.5,-392.23 1543.5,-392.23 1071.35,-123.5 1536.23,152.52 1935.73,552.01 46.64,46.65 97.63,93.16 151.17,138.98 32.79,26.97 714.85,585.53 1057.78,632.38l228.34 -47.65 138.91 -29c-514.56,-60.81 -1412.56,-845.29 -1472.92,-898.52 -470.26,-419.68 -1262.49,-980.96 -2892.46,-391.81 -1808.67,653.74 -2527.72,36.35 -2527.72,36.35l0 29.04 0 1634.28c849.82,515.77 1968.41,145.28 2549.5,0 513.07,-128.23 1376.96,-391.36 2122.13,-81.3l0.07 -0.04c0,0 0.45,0.21 0.52,0.28 40.86,16.98 81.23,36.14 121.3,56.7 188.82,86.2 555.48,244.4 797.12,290.84 216.91,34.28 488.17,51.61 818.28,28.94 224.14,-15.4 471.98,-70.49 745.66,-150.14l7.23 1321.99 552.05 -138.01 7.23 -1321.99c1409.18,-450.34 2200.87,101.7 2200.87,101.7l0 -530.65c-871.62,-566.92 -2208.1,-43.17 -2208.1,-43.17zm-5876.19 -326.83l0 0c0,0 1033.19,-416.51 1864.37,-460.92 1014.24,-54.19 1384.66,482.14 1384.66,482.14 -438.01,-349.85 -1196.73,-354.29 -1446.98,-330.87 -440.46,46.24 -1027.56,179.42 -1802.05,487.14l0 -177.49zm-315.16 -308.79l0 0c5.48,-20.8 10.86,-41.61 16.33,-62.46 6.1,19.02 12.3,37.83 18.4,56.88 20.05,-3.41 40.07,-6.85 60.15,-10.5 -16.5,14.57 -33.11,29.21 -49.61,43.61l-0.17 0c0.17,0.14 0.48,0.28 0.59,0.45 6.65,18.71 13.33,37.45 19.94,56.08 -16.02,-9.57 -31.94,-19.46 -47.99,-29.28l0 -0.31 -0.17 0.31c-15.85,15.06 -31.94,30.04 -47.85,44.82 6.68,-20.87 13.43,-41.65 20.11,-62.66 0.18,-0.14 0.32,-0.28 0.45,-0.42 -0.13,0 -0.13,0 -0.27,0 -16.54,-9.13 -32.97,-18.4 -49.47,-27.66 19.77,-2.76 39.79,-5.82 59.56,-8.86zm0 310.3l0 0c5.48,-20.87 10.86,-41.68 16.33,-62.49 6.1,18.84 12.3,37.86 18.4,56.71 0,0.13 0,0.13 0,0.13 20.05,-3.34 40.07,-6.99 60.15,-10.64 -16.5,14.78 -33.11,29.52 -49.61,43.96l-0.17 0c0.17,0.13 0.48,0.13 0.59,0.31 6.65,18.67 13.33,37.21 19.94,55.91 -16.02,-9.57 -31.94,-19.29 -47.99,-29.21l0 -0.28 -0.17 0.48c-15.85,14.89 -31.94,29.8 -47.85,44.55 6.68,-20.84 13.43,-41.68 20.11,-62.53 0.18,0 0.32,-0.14 0.45,-0.28 -0.13,0 -0.13,0 -0.27,0 -16.54,-9.09 -32.97,-18.5 -49.47,-28 19.77,-2.69 39.79,-5.58 59.56,-8.62zm0 310.24l0 0c5.48,-20.82 10.86,-41.66 16.33,-62.5 6.1,18.98 12.3,37.9 18.4,56.88 20.05,-3.34 40.07,-6.86 60.15,-10.51 -16.5,14.61 -33.11,29.22 -49.61,43.68l-0.17 0c0.17,0.14 0.48,0.42 0.59,0.59 6.65,18.53 13.33,37.24 19.94,55.78 -16.02,-9.58 -31.94,-19.43 -47.99,-29.32 0,0 0,0 0,-0.14 0,0.14 -0.17,0.14 -0.17,0.14 -15.85,15.02 -31.94,30.11 -47.85,44.82 6.68,-20.67 13.43,-41.48 20.11,-62.32 0.18,-0.14 0.32,-0.45 0.45,-0.62 -0.13,0 -0.13,0 -0.27,0 -16.54,-9.13 -32.97,-18.4 -49.47,-27.67 19.77,-2.75 39.79,-5.75 59.56,-8.81zm-627.76 -586.77l0 0c5.37,-19.61 10.85,-39.21 16.22,-58.81 6.03,20.19 12.27,40.58 18.37,60.77 0.13,0.17 0.13,0 0.27,0.17 19.98,0.9 39.93,1.79 59.88,2.28 -16.47,11.23 -32.97,22.15 -49.48,33.1 -0.1,0 -0.1,0 -0.27,0 0.17,0.14 0.45,0.31 0.59,0.48 6.78,20.23 13.43,40.31 20.22,60.5 -16.02,-13.02 -31.94,-26.29 -47.99,-39.79 0,0 -0.14,-0.17 -0.14,-0.34 0,0.17 -0.14,0.17 -0.14,0.17 -16.05,11.71 -31.97,23.08 -48.02,34.21 6.61,-19.29 13.43,-38.79 20.12,-58.05 0.27,-0.17 0.41,-0.35 0.69,-0.48 -0.14,0 -0.42,0 -0.59,0 -16.43,-12.79 -32.8,-25.81 -49.27,-39.07 19.82,2 39.76,3.48 59.54,4.86zm0 310.26l0 0c5.37,-19.6 10.85,-39.24 16.22,-58.84 6.03,20.22 12.27,40.48 18.37,60.67l0 0.31c0.13,0 0.13,0 0.27,0 19.98,0.89 39.93,1.65 59.88,2.13 -16.47,11.41 -32.97,22.5 -49.48,33.42 -0.1,0 -0.1,0 -0.27,0 0.17,0.14 0.45,0.14 0.59,0.28 6.78,20.25 13.43,40.3 20.22,60.39 -16.02,-13.09 -31.94,-26.32 -47.99,-39.65l-0.14 -0.31c0,0 -0.14,0.13 -0.14,0.31 -16.05,11.36 -31.97,22.8 -48.02,33.9 6.61,-19.36 13.43,-38.62 20.12,-57.95 0.27,-0.17 0.41,-0.17 0.69,-0.31 -0.14,0 -0.42,0 -0.59,0 -16.43,-12.89 -32.8,-25.98 -49.27,-39.34 19.82,1.96 39.76,3.61 59.54,4.99zm0 310.3l0 0c5.37,-19.64 10.85,-39.27 16.22,-58.88 6.03,20.23 12.27,40.62 18.37,60.81 0,0.17 0,0.17 0,0.17 0.13,0 0.13,0 0.27,0 19.98,0.9 39.93,1.83 59.88,2.28 -16.47,11.26 -32.97,22.18 -49.48,33.14 -0.1,0 -0.1,0 -0.27,0 0.17,0.14 0.45,0.45 0.59,0.58 6.78,20.09 13.43,40.14 20.22,60.22 -16.02,-13.09 -31.94,-26.32 -47.99,-39.86 0,0 -0.14,0 -0.14,-0.13 0,0.13 -0.14,0.13 -0.14,0.13 -16.05,11.61 -31.97,22.98 -48.02,34.08 6.61,-19.33 13.43,-38.45 20.12,-57.78 0.27,-0.14 0.41,-0.31 0.69,-0.58 -0.14,0 -0.42,0 -0.59,0 -16.43,-12.79 -32.8,-25.84 -49.27,-39.04 19.82,1.9 39.76,3.45 59.54,4.86zm-308.71 -663.87l0 0c5.48,-18.74 10.86,-37.58 16.33,-56.39 6.1,21.25 12.3,42.54 18.4,63.7 0.03,0 0.07,0 0.14,0 19.94,3.89 40.02,7.61 59.96,11.09 -16.46,8.82 -32.95,17.43 -49.39,25.97 -0.17,0 -0.17,-0.17 -0.31,-0.17 0.14,0.35 0.45,0.48 0.59,0.62 6.61,21.15 13.43,42.27 20.08,63.39 -16.05,-15.36 -32.07,-31 -48.16,-46.82 -16.05,9.13 -31.93,18.12 -48.02,26.77 6.68,-18.29 13.47,-36.65 20.08,-54.88 0.17,-0.17 0.31,-0.34 0.48,-0.48 -0.17,0 -0.17,0 -0.31,0 -16.47,-15.33 -32.96,-30.83 -49.43,-46.65 19.81,5 39.75,9.58 59.56,13.85zm0 310.23l0 0c5.48,-18.7 10.86,-37.55 16.33,-56.36 6.1,21.29 12.3,42.38 18.4,63.49 0,0 -0.14,0.18 -0.14,0.31 0.14,0 0.14,-0.13 0.28,-0.13 19.94,3.96 40.02,7.57 59.96,10.92 -16.46,8.99 -32.95,17.67 -49.39,26.32 -0.17,0 -0.17,-0.17 -0.31,-0.17 0.14,0.17 0.45,0.34 0.59,0.48 6.61,21.15 13.43,42.1 20.08,63.25 -16.05,-15.37 -32.07,-30.83 -48.16,-46.68 0,0 0,-0.1 0,-0.14 -16.05,9.27 -31.93,18.09 -48.02,26.77 6.68,-18.26 13.47,-36.52 20.08,-54.78 0.17,-0.14 0.31,-0.14 0.48,-0.27 -0.17,0 -0.17,0 -0.31,0 -16.47,-15.54 -32.96,-31.15 -49.43,-46.99 19.81,5.06 39.75,9.75 59.56,13.98zm0 310.27l0 0c5.48,-18.68 10.86,-37.52 16.33,-56.4 6.1,21.33 12.3,42.58 18.4,63.74l-0.14 0.13c0.14,0 0.14,-0.13 0.28,-0.13 19.94,3.92 40.02,7.57 59.96,11.05 -16.46,8.86 -32.95,17.51 -49.39,26.02 -0.17,0 -0.17,-0.18 -0.31,-0.18 0.14,0.31 0.45,0.45 0.59,0.8 6.61,21.11 13.43,42.09 20.08,63.04 -16.05,-15.37 -32.07,-31 -48.16,-46.78 -16.05,9.13 -31.93,18.05 -48.02,26.76 6.68,-18.12 13.47,-36.34 20.08,-54.6 0.17,-0.17 0.31,-0.45 0.48,-0.59 -0.17,0 -0.17,0 -0.31,0 -16.47,-15.36 -32.96,-30.87 -49.43,-46.68 19.81,5 39.75,9.58 59.56,13.82zm-308.85 -714l0 0c5.44,-17.81 10.82,-35.73 16.3,-53.47 6.09,22.29 12.29,44.51 18.39,66.7 20.09,7.48 40.07,14.57 60.15,21.29 -16.5,6.24 -33.1,11.99 -49.61,17.61l-0.13 0c0.13,0.13 0.41,0.44 0.55,0.62 6.65,22.35 13.33,44.57 19.98,66.73 -16.06,-18.09 -31.97,-36.49 -48.03,-55.06 0,0 0,-0.06 0,-0.13 -16.05,6.54 -31.97,12.6 -47.99,18.57 6.65,-17.19 13.44,-34.35 20.12,-51.54 0.11,0 0.42,-0.18 0.55,-0.18 -0.13,-0.13 -0.27,-0.13 -0.44,-0.13 -16.47,-18.26 -32.94,-36.8 -49.41,-55.43 19.75,8.47 39.73,16.63 59.57,24.42zm0 310.27l0 0c5.44,-17.81 10.82,-35.73 16.3,-53.54 6.09,22.22 12.29,44.41 18.39,66.59l0 0.14c20.09,7.44 40.07,14.47 60.15,21.19 -16.5,6.2 -33.1,12.12 -49.61,17.88l-0.13 0c0.13,0.17 0.41,0.34 0.55,0.48 6.65,22.15 13.33,44.41 19.98,66.56 -16.06,-18.12 -31.97,-36.28 -48.03,-54.88 -16.05,6.27 -31.97,12.37 -47.99,18.29 6.65,-17.05 13.44,-34.24 20.12,-51.43 0.11,0 0.42,0 0.55,0 -0.13,-0.14 -0.27,-0.14 -0.44,-0.14 -16.47,-18.4 -32.94,-36.93 -49.41,-55.81 19.75,8.54 39.73,16.74 59.57,24.67zm0 310.23l0 0c5.44,-17.74 10.82,-35.73 16.3,-53.47 6.09,22.32 12.29,44.51 18.39,66.73 20.09,7.44 40.07,14.57 60.15,21.26 -16.5,6.27 -33.1,12.02 -49.61,17.64l-0.13 0c0.13,0.13 0.41,0.44 0.55,0.75 6.65,22.19 13.33,44.41 19.98,66.46 -16.06,-18.12 -31.97,-36.48 -48.03,-55.05 -16.05,6.41 -31.97,12.47 -47.99,18.39 6.65,-17.02 13.44,-34.03 20.12,-51.26 0.11,-0.1 0.42,-0.1 0.55,-0.27 -0.13,-0.14 -0.27,-0.14 -0.44,-0.14 -16.47,-18.26 -32.94,-36.8 -49.41,-55.54 19.75,8.55 39.73,16.75 59.57,24.5zm-111.24 453.96l0 0c6.68,22.98 13.43,45.88 20.12,68.66 -16.06,-19.57 -31.97,-39.52 -47.99,-59.57 0,-0.1 -0.18,-0.31 -0.18,-0.44 0,0.13 -0.13,0.13 -0.13,0.13 -15.92,4.86 -32.01,9.44 -47.86,13.72 6.65,-16.44 13.44,-32.91 20.09,-49.41 0,0 0.45,0 0.58,-0.17 -0.13,0 -0.13,0 -0.31,-0.14 -16.5,-19.94 -33.07,-40 -49.6,-60.5 19.84,10.48 39.65,20.64 59.46,30.39 5.48,-17.16 10.85,-34.52 16.33,-51.85 6.06,22.81 12.29,45.79 18.32,68.6 0,0 0,0.06 0,0.13 20.16,9.27 40.24,18.36 60.33,27.05 -16.47,4.58 -33.07,8.85 -49.58,12.78l-0.17 0c0.17,0.14 0.45,0.48 0.59,0.62zm-0.42 -311.16l0 0 -0.17 0c0.17,0.1 0.45,0.27 0.59,0.45 6.68,22.94 13.43,45.71 20.12,68.69 -16.06,-19.74 -31.97,-39.69 -47.99,-59.77 0,0 -0.18,-0.14 -0.18,-0.28 0,0.14 -0.13,0.14 -0.13,0.14 -15.92,4.75 -32.01,9.27 -47.86,13.68 6.65,-16.44 13.44,-32.8 20.09,-49.41 0,0 0.45,0 0.58,0 -0.13,0 -0.13,0 -0.31,-0.13 -16.5,-19.95 -33.07,-40.31 -49.6,-60.81 19.84,10.61 39.65,20.84 59.46,30.52 5.48,-17.15 10.85,-34.48 16.33,-51.81 6.06,22.81 12.29,45.61 18.32,68.42 0,0.07 0,0.07 0,0.14 20.16,9.4 40.24,18.39 60.33,27.04 -16.47,4.55 -33.07,8.99 -49.58,13.13zm0 -310.92l0 0 -0.17 0c0.17,0.34 0.45,0.48 0.59,0.79 6.68,22.94 13.43,45.71 20.12,68.52 -16.06,-19.74 -31.97,-39.62 -47.99,-59.73l-0.18 -0.14 -0.13 0c-15.92,4.71 -32.01,9.27 -47.86,13.67 6.65,-16.4 13.44,-32.83 20.09,-49.26 0,0 0.45,-0.14 0.58,-0.28 -0.13,0 -0.13,0 -0.31,-0.14 -16.5,-19.94 -33.07,-39.99 -49.6,-60.49 19.84,10.47 39.65,20.64 59.46,30.35 5.48,-17.16 10.85,-34.49 16.33,-51.78 6.06,22.77 12.29,45.68 18.32,68.52 20.16,9.41 40.24,18.54 60.33,27.22 -16.47,4.58 -33.07,8.82 -49.58,12.75zm0 -310.27l0 0 -0.17 0c0.17,0.17 0.45,0.48 0.59,0.62 6.68,22.98 13.43,45.75 20.12,68.7 -16.06,-19.57 -31.97,-39.48 -47.99,-59.57 0,-0.14 -0.18,-0.31 -0.18,-0.48 0,0.17 -0.13,0.17 -0.13,0.17 -15.92,4.89 -32.01,9.3 -47.86,13.68 6.65,-16.4 13.44,-32.83 20.09,-49.41 0,0 0.45,0 0.58,-0.17 -0.13,0 -0.13,0 -0.31,-0.13 -16.5,-19.88 -33.07,-40.14 -49.6,-60.64 19.84,10.65 39.65,20.78 59.46,30.56 5.48,-17.19 10.85,-34.56 16.33,-51.85 6.06,22.81 12.29,45.58 18.32,68.42 0,0 0,0.1 0,0.14 20.16,9.44 40.24,18.39 60.33,27.04 -16.47,4.58 -33.07,8.86 -49.58,12.92zm0 -308.85l0 0 -0.17 0c0.17,0.14 0.45,0.41 0.59,0.55 6.68,22.98 13.43,45.79 20.12,68.76 -16.06,-19.63 -31.97,-39.51 -47.99,-59.63 0,-0.14 -0.18,-0.28 -0.18,-0.41 0,0.13 -0.13,0.13 -0.13,0.13 -15.92,4.86 -32.01,9.27 -47.86,13.68 6.65,-16.4 13.44,-32.8 20.09,-49.4 0,0 0.45,0 0.58,-0.17 -0.13,0 -0.13,0 -0.31,-0.14 -16.5,-19.88 -33.07,-40.14 -49.6,-60.67 19.84,10.51 39.65,20.67 59.46,30.42 5.48,-17.16 10.85,-34.52 16.33,-51.68 6.06,22.77 12.29,45.58 18.32,68.42 0,0 0,0.11 0,0.14 20.16,9.27 40.24,18.4 60.33,27.05 -16.47,4.58 -33.07,8.81 -49.58,12.95zm129.26 1162l0 0c-16.05,6.19 -31.97,12.29 -47.99,18.22 6.65,-17.02 13.44,-34.21 20.12,-51.37 0.11,0 0.42,0 0.55,0 -0.13,-0.13 -0.27,-0.13 -0.44,-0.13 -16.47,-18.44 -32.94,-36.94 -49.41,-55.81 19.75,8.47 39.73,16.7 59.57,24.59 5.44,-17.74 10.82,-35.72 16.3,-53.5 6.09,22.22 12.29,44.41 18.39,66.59l0 0.18c20.09,7.4 40.07,14.43 60.15,21.08 -16.5,6.27 -33.1,12.2 -49.61,17.98l-0.13 0c0.13,0.14 0.41,0.28 0.55,0.42 6.65,22.22 13.33,44.4 19.98,66.62 -16.06,-18.12 -31.97,-36.37 -48.03,-54.87zm181.9 193.3l0 0c6.65,21.81 13.34,43.41 19.99,64.94 -16.06,-16.71 -31.97,-33.56 -47.99,-50.57 0,-0.21 0,-0.35 0,-0.35 -0.18,0 -0.18,0.14 -0.31,0.14 -15.92,7.78 -31.8,15.37 -47.72,22.7 6.65,-17.64 13.3,-35.45 19.98,-53.22 0.14,0 0.42,-0.14 0.55,-0.14 -0.13,-0.17 -0.13,-0.17 -0.27,-0.17 -16.5,-16.71 -32.97,-33.77 -49.47,-50.92 19.81,6.68 39.62,13.05 59.42,19.01 5.48,-18.43 10.86,-36.69 16.33,-55.05 6.24,21.74 12.3,43.44 18.54,65.22 20.08,5.61 40.03,10.95 60.15,15.98 -16.5,7.51 -33.11,14.89 -49.57,21.88l-0.18 0c0.18,0.1 0.45,0.45 0.55,0.55zm-0.37 -311.16l0 0 -0.18 0c0.18,0.21 0.45,0.31 0.55,0.48 6.65,21.77 13.34,43.3 19.99,64.9 -16.06,-16.7 -31.97,-33.76 -47.99,-50.77l0 -0.14c-0.18,0 -0.18,0 -0.31,0 -15.92,7.89 -31.8,15.53 -47.72,22.77 6.65,-17.6 13.3,-35.38 19.98,-53.16 0.14,0 0.42,0 0.55,-0.17 -0.13,0 -0.13,0 -0.27,0 -16.5,-16.88 -32.97,-33.87 -49.47,-51.23 19.81,6.69 39.62,13.09 59.42,19.16 5.48,-18.4 10.86,-36.66 16.33,-55.02 6.24,21.73 12.3,43.3 18.54,65.04 0,0 0,0.1 0,0.17 20.08,5.65 40.03,10.92 60.15,15.82 -16.5,7.61 -33.11,15.02 -49.57,22.15zm0 -310.85l0 0 -0.18 0c0.18,0.31 0.45,0.48 0.55,0.79 6.65,21.57 13.34,43.17 19.99,64.7 -16.06,-16.68 -31.97,-33.69 -47.99,-50.78 -0.18,0 -0.18,-0.14 -0.31,-0.14 -15.92,7.96 -31.8,15.54 -47.72,22.87 6.65,-17.67 13.3,-35.31 19.98,-53.09 0.14,-0.16 0.42,-0.16 0.55,-0.3 -0.13,-0.14 -0.13,-0.14 -0.27,-0.14 -16.5,-16.75 -32.97,-33.76 -49.47,-50.92 19.81,6.65 39.62,13.02 59.42,18.98 5.48,-18.39 10.86,-36.62 16.33,-55.05 6.24,21.74 12.3,43.48 18.54,65.22 20.08,5.61 40.03,10.99 60.15,15.98 -16.5,7.58 -33.11,14.88 -49.57,21.88zm0 -310.23l0 0 -0.18 0c0.18,0.14 0.45,0.41 0.55,0.58 6.65,21.57 13.34,43.31 19.99,64.87 -16.06,-16.67 -31.97,-33.55 -47.99,-50.54l0 -0.37c-0.18,0 -0.18,0.17 -0.31,0.17 -15.92,7.78 -31.8,15.33 -47.72,22.66 6.65,-17.63 13.3,-35.41 19.98,-53.22 0.14,0 0.42,-0.17 0.55,-0.31 -0.13,0 -0.13,0 -0.27,0 -16.5,-16.75 -32.97,-33.73 -49.47,-51.06 19.81,6.68 39.62,13.06 59.42,19.16 5.48,-18.4 10.86,-36.62 16.33,-55.02 6.24,21.74 12.3,43.3 18.54,65.04 0,0.14 0,0.14 0,0.14 20.08,5.65 40.03,10.96 60.15,15.85 -16.5,7.54 -33.11,14.88 -49.57,22.05zm0 -308.93l0 0 -0.18 0c0.18,0.18 0.45,0.49 0.55,0.62 6.65,21.57 13.34,43.31 19.99,64.91 -16.06,-16.71 -31.97,-33.59 -47.99,-50.61l0 -0.31c-0.18,0 -0.18,0.18 -0.31,0.18 -15.92,7.75 -31.8,15.32 -47.72,22.59 6.65,-17.6 13.3,-35.38 19.98,-53.15 0.14,0 0.42,-0.18 0.55,-0.35 -0.13,0 -0.13,0 -0.27,0 -16.5,-16.71 -32.97,-33.73 -49.47,-51.06 19.81,6.69 39.62,13.06 59.42,19.02 5.48,-18.26 10.86,-36.65 16.33,-54.91 6.24,21.74 12.3,43.37 18.54,65.08 20.08,5.61 40.03,10.95 60.15,15.98 -16.5,7.58 -33.11,14.85 -49.57,22.01zm127.36 1138.3l0 0c0,0 0,-0.07 0,-0.14 -16.05,9.27 -31.93,18.05 -48.02,26.73 6.68,-18.22 13.47,-36.48 20.08,-54.7 0.17,-0.17 0.31,-0.17 0.48,-0.31 -0.17,0 -0.17,0 -0.31,0 -16.47,-15.54 -32.96,-31.18 -49.43,-47 19.81,5.03 39.75,9.72 59.56,14.03 5.48,-18.71 10.86,-37.56 16.33,-56.43 6.1,21.25 12.3,42.4 18.4,63.56 0,0.13 -0.14,0.13 -0.14,0.13 0.14,0.18 0.14,0 0.28,0 19.94,3.97 40.02,7.59 59.96,10.96 -16.46,8.96 -32.95,17.64 -49.39,26.29 -0.17,0 -0.17,-0.14 -0.31,-0.14 0.14,0.14 0.45,0.27 0.59,0.41 6.61,21.15 13.43,42.17 20.08,63.26 -16.05,-15.34 -32.07,-30.87 -48.16,-46.65zm178.59 162.64l0 0c6.64,20.71 13.33,41.17 19.94,61.7 -15.88,-14.12 -31.93,-28.38 -47.88,-42.99 0,-0.14 -0.11,-0.14 -0.11,-0.14 0,0 -0.17,0 -0.17,0.14 -16.02,10.3 -31.94,20.36 -48.03,30.25 6.86,-18.68 13.51,-37.52 20.3,-56.4 0.13,0 0.31,-0.17 0.44,-0.31 -0.13,0 -0.13,0 -0.31,0 -16.5,-14.12 -32.83,-28.42 -49.33,-42.86 19.84,3.48 39.65,6.55 59.5,9.31 5.3,-19.2 10.81,-38.52 16.15,-57.68 6.21,20.71 12.27,41.52 18.5,62.22 19.99,2.59 40.04,4.72 60.02,6.65 -16.47,10.06 -33,19.95 -49.44,29.63l-0.17 0c0.17,0.14 0.45,0.34 0.59,0.48zm-0.42 -311.02l0 0 -0.17 0c0.17,0 0.45,0.17 0.59,0.34 6.64,20.64 13.33,41.17 19.94,61.71 -15.88,-14.13 -31.93,-28.6 -47.88,-43.17l-0.11 -0.21 -0.17 0.21c-16.02,10.3 -31.94,20.5 -48.03,30.42 6.86,-18.74 13.51,-37.55 20.3,-56.43 0.13,0 0.31,-0.14 0.44,-0.14 -0.13,0 -0.13,0 -0.31,0 -16.5,-14.3 -32.83,-28.59 -49.33,-43.17 19.84,3.48 39.65,6.65 59.5,9.41 5.3,-19.12 10.81,-38.45 16.15,-57.6 6.21,20.67 12.27,41.33 18.5,62.01 0,0.14 -0.13,0.31 -0.13,0.31l0.13 -0.17c19.99,2.44 40.04,4.54 60.02,6.57 -16.47,10.17 -33,20.02 -49.44,29.91zm0 -310.89l0 0 -0.17 0c0.17,0.21 0.45,0.48 0.59,0.66 6.64,20.5 13.33,40.99 19.94,61.53 -15.88,-14.13 -31.93,-28.56 -47.88,-43.17l-0.11 0 -0.17 0c-16.02,10.33 -31.94,20.53 -48.03,30.42 6.86,-18.71 13.51,-37.41 20.3,-56.26 0.13,-0.17 0.31,-0.31 0.44,-0.48 -0.13,0 -0.13,0 -0.31,0 -16.5,-14.09 -32.83,-28.39 -49.33,-42.86 19.84,3.52 39.65,6.58 59.5,9.31 5.3,-19.2 10.81,-38.49 16.15,-57.64 6.21,20.67 12.27,41.51 18.5,62.22 19.99,2.58 40.04,4.68 60.02,6.64 -16.47,10.03 -33,19.95 -49.44,29.63zm0 -310.19l0 0 -0.17 0c0.17,0.13 0.45,0.27 0.59,0.41 6.64,20.64 13.33,41.24 19.94,61.7 -15.88,-14.09 -31.93,-28.42 -47.88,-42.99 0,0 -0.11,-0.18 -0.11,-0.31 0,0.13 -0.17,0.13 -0.17,0.13 -16.02,10.51 -31.94,20.57 -48.03,30.42 6.86,-18.74 13.51,-37.55 20.3,-56.36 0.13,0 0.31,-0.2 0.44,-0.34 -0.13,0 -0.13,0 -0.31,0 -16.5,-14.13 -32.83,-28.42 -49.33,-43.03 19.84,3.48 39.65,6.54 59.5,9.44 5.3,-19.12 10.81,-38.48 16.15,-57.6 6.21,20.63 12.27,41.37 18.5,62.01l-0.13 0.28 0.13 -0.14c19.99,2.44 40.04,4.71 60.02,6.51 -16.47,10.09 -33,20.12 -49.44,29.87zm0 -308.92l0 0 -0.17 0c0.17,0.13 0.45,0.27 0.59,0.44 6.64,20.71 13.33,41.2 19.94,61.74 -15.88,-14.16 -31.93,-28.46 -47.88,-43.06 0,0 -0.11,-0.14 -0.11,-0.31 0,0.17 -0.17,0.17 -0.17,0.17 -16.02,10.47 -31.94,20.57 -48.03,30.42 6.86,-18.71 13.51,-37.55 20.3,-56.4 0.13,0 0.31,-0.14 0.44,-0.31 -0.13,0 -0.13,0 -0.31,0 -16.5,-14.16 -32.83,-28.42 -49.33,-43.06 19.84,3.58 39.65,6.61 59.5,9.3 5.3,-19.12 10.81,-38.34 16.15,-57.46 6.21,20.66 12.27,41.37 18.5,62.01 19.99,2.61 40.04,4.79 60.02,6.71 -16.47,10.03 -33,20.09 -49.44,29.81zm130.71 1118.93l0 0c0,-0.14 -0.14,-0.14 -0.14,-0.14 0,0 -0.14,0 -0.14,0.14 -16.05,11.4 -31.97,22.84 -48.02,33.93 6.61,-19.29 13.43,-38.62 20.12,-57.94 0.27,-0.14 0.41,-0.14 0.69,-0.28 -0.14,0 -0.42,0 -0.59,0 -16.43,-12.92 -32.8,-26.01 -49.27,-39.41 19.82,2.03 39.76,3.68 59.54,5.03 5.37,-19.57 10.85,-39.17 16.22,-58.81 6.03,20.22 12.27,40.44 18.37,60.67 0,0.14 0,0.27 0,0.27 0.13,0 0.13,0 0.27,0 19.98,0.93 39.93,1.72 59.88,2.14 -16.47,11.4 -32.97,22.49 -49.48,33.49 -0.1,0 -0.1,0 -0.27,0 0.17,0.13 0.45,0.13 0.59,0.27 6.78,20.22 13.43,40.28 20.22,60.32 -16.02,-13.05 -31.94,-26.28 -47.99,-39.68zm181.79 137.59l0 0c6.62,19.64 13.44,39.42 20.09,58.95 -16.05,-11.99 -31.97,-24.15 -47.99,-36.41 0,-0.18 -0.14,-0.35 -0.14,-0.35 0,0 -0.17,0.17 -0.17,0.35 -15.88,12.4 -31.83,24.73 -47.75,36.93 6.65,-19.78 13.33,-39.52 19.95,-59.29 0.17,-0.18 0.48,-0.31 0.58,-0.49 -0.1,0 -0.1,0 -0.27,0 -16.43,-11.67 -32.97,-23.7 -49.44,-35.72 19.81,0.48 39.48,0.79 59.29,0.93 5.48,-20.05 10.96,-40 16.5,-59.88 6.03,19.88 12.27,39.83 18.33,59.74l0 0.28 0.17 -0.28c19.95,-0.31 40.04,-0.79 59.98,-1.52 -16.46,12.31 -32.97,24.29 -49.44,36.32 -0.16,0 -0.16,0 -0.3,0 0.14,0.13 0.45,0.31 0.61,0.44zm-0.31 -311.02l0 0c-0.16,0 -0.16,0 -0.3,0 0.14,0 0.45,0.14 0.61,0.28 6.62,19.67 13.44,39.41 20.09,59.05 -16.05,-12.17 -31.97,-24.36 -47.99,-36.8l-0.14 0 -0.17 0c-15.88,12.61 -31.83,24.91 -47.75,37.25 6.65,-19.78 13.33,-39.52 19.95,-59.3 0.17,0 0.48,-0.2 0.58,-0.34 -0.1,0 -0.1,0 -0.27,0 -16.43,-11.85 -32.97,-23.87 -49.44,-36 19.81,0.62 39.48,0.93 59.29,1.07 5.48,-20.09 10.96,-40 16.5,-59.91 6.03,19.77 12.27,39.68 18.33,59.6 0,0 0,0.17 0,0.31 0,-0.14 0.17,-0.14 0.17,-0.14 19.95,-0.31 40.04,-0.93 59.98,-1.55 -16.46,12.33 -32.97,24.49 -49.44,36.48zm0 -310.85l0 0c-0.16,0 -0.16,0 -0.3,0 0.14,0.17 0.45,0.31 0.61,0.62 6.62,19.6 13.44,39.21 20.09,58.81 -16.05,-12.16 -31.97,-24.29 -47.99,-36.8l-0.14 0 -0.17 0c-15.88,12.65 -31.83,24.98 -47.75,37.25 6.65,-19.61 13.33,-39.38 19.95,-59.16 0.17,-0.1 0.48,-0.24 0.58,-0.55 -0.1,0 -0.1,0 -0.27,0 -16.43,-11.74 -32.97,-23.6 -49.44,-35.76 19.81,0.45 39.48,0.76 59.29,0.9 5.48,-20.02 10.96,-39.93 16.5,-59.84 6.03,19.91 12.27,39.82 18.33,59.7l0.17 0c19.95,-0.31 40.04,-0.76 59.98,-1.52 -16.46,12.3 -32.97,24.33 -49.44,36.35zm0 -310.23l0 0c-0.16,0 -0.16,0 -0.3,0 0.14,0.14 0.45,0.28 0.61,0.41 6.62,19.6 13.44,39.38 20.09,58.98 -16.05,-11.99 -31.97,-24.15 -47.99,-36.62l-0.14 -0.31 -0.17 0.31c-15.88,12.65 -31.83,24.94 -47.75,37.07 6.65,-19.77 13.33,-39.52 19.95,-59.29 0.17,-0.14 0.48,-0.27 0.58,-0.41 -0.1,0 -0.1,0 -0.27,0 -16.43,-11.75 -32.97,-23.7 -49.44,-35.86 19.81,0.58 39.48,0.89 59.29,0.99 5.48,-20.05 10.96,-39.96 16.5,-59.87 6.03,19.77 12.27,39.68 18.33,59.6l0 0.27 0.17 -0.1c19.95,-0.31 40.04,-0.89 59.98,-1.69 -16.46,12.3 -32.97,24.49 -49.44,36.52zm0 -308.92l0 0c-0.16,0 -0.16,0 -0.3,0 0.14,0.13 0.45,0.27 0.61,0.45 6.62,19.6 13.44,39.37 20.09,58.98 -16.05,-12 -31.97,-24.16 -47.99,-36.63l-0.14 -0.31 -0.17 0.31c-15.88,12.61 -31.83,24.91 -47.75,37.07 6.65,-19.77 13.33,-39.55 19.95,-59.29 0.17,-0.13 0.48,-0.31 0.58,-0.45 -0.1,0 -0.1,0 -0.27,0 -16.43,-11.67 -32.97,-23.7 -49.44,-35.86 19.81,0.45 39.48,0.76 59.29,0.93 5.48,-19.94 10.96,-39.82 16.5,-59.77 6.03,19.77 12.27,39.69 18.33,59.6l0 0.35 0.17 -0.35c19.95,-0.31 40.04,-0.76 59.98,-1.48 -16.46,12.26 -32.97,24.42 -49.44,36.45zm160.41 1077.9l0 0c6.61,19.29 13.26,38.62 19.91,57.81 -16.05,-11.13 -31.93,-22.36 -48.02,-33.66l0 -0.28 -0.14 0.28c-16.09,13.4 -31.93,26.8 -47.99,39.89 6.68,-20.12 13.43,-40.27 20.08,-60.53 0.14,0 0.42,-0.14 0.59,-0.31 -0.17,0 -0.17,0 -0.31,0 -16.47,-10.81 -32.94,-21.7 -49.44,-32.96 19.85,-0.63 39.76,-1.52 59.57,-2.59 5.37,-20.36 10.88,-40.58 16.19,-60.98 6.24,19.61 12.3,39.07 18.53,58.53 -0.13,0.18 -0.13,0.18 -0.31,0.31 0.18,0 0.18,-0.13 0.31,-0.13 19.95,-1.52 39.9,-3.21 59.88,-5.03 -16.5,13.26 -32.83,26.42 -49.33,39.37 -0.11,0 -0.11,0 -0.31,0 0.31,0.14 0.48,0.14 0.79,0.28zm-0.48 -310.68l0 0c-0.11,0 -0.11,0 -0.31,0 0.31,0.14 0.48,0.31 0.79,0.62 6.61,19.15 13.26,38.41 19.91,57.6 -16.05,-11.13 -31.93,-22.32 -48.02,-33.76 0,0 0,-0.14 0,-0.28 0,0.14 -0.14,0.14 -0.14,0.14 -16.09,13.51 -31.93,26.87 -47.99,40.1 6.68,-20.01 13.43,-40.1 20.08,-60.32 0.14,-0.21 0.42,-0.34 0.59,-0.62 -0.17,0 -0.17,0 -0.31,0 -16.47,-10.65 -32.94,-21.6 -49.44,-32.7 19.85,-0.75 39.76,-1.65 59.57,-2.68 5.37,-20.4 10.88,-40.65 16.19,-61.01 6.24,19.6 12.3,39.1 18.53,58.67 19.95,-1.38 39.9,-3 59.88,-4.86 -16.5,13.12 -32.83,26.15 -49.33,39.1zm0 -310.13l0 0c-0.11,0 -0.11,0 -0.31,0 0.31,0.14 0.48,0.14 0.79,0.35 6.61,19.29 13.26,38.58 19.91,57.74 -16.05,-11.1 -31.93,-22.36 -48.02,-33.59l0 -0.31 -0.14 0.31c-16.09,13.36 -31.93,26.77 -47.99,39.79 6.68,-20.02 13.43,-40.24 20.08,-60.53 0.14,0 0.42,-0.14 0.59,-0.28 -0.17,0 -0.17,0 -0.31,0 -16.47,-10.78 -32.94,-21.74 -49.44,-32.97 19.85,-0.62 39.76,-1.51 59.57,-2.58 5.37,-20.36 10.88,-40.58 16.19,-60.95 6.24,19.61 12.3,39.07 18.53,58.5 -0.13,0 -0.13,0.17 -0.31,0.31 0.18,0 0.18,-0.14 0.31,-0.14 19.95,-1.51 39.9,-3.16 59.88,-5.03 -16.5,13.23 -32.83,26.46 -49.33,39.38zm0 -310.4l0 0c-0.11,0 -0.11,0 -0.31,0 0.31,0.14 0.48,0.27 0.79,0.45 6.61,19.29 13.26,38.62 19.91,57.94 -16.05,-11.12 -31.93,-22.35 -48.02,-33.93 0,0 0,-0.17 0,-0.31 0,0.14 -0.14,0.31 -0.14,0.31 -16.09,13.54 -31.93,26.94 -47.99,40.14 6.68,-20.09 13.43,-40.45 20.08,-60.64 0.14,-0.17 0.42,-0.31 0.59,-0.45 -0.17,0 -0.17,0 -0.31,0 -16.47,-10.68 -32.94,-21.63 -49.44,-32.69 19.85,-0.76 39.76,-1.72 59.57,-2.75 5.37,-20.37 10.88,-40.56 16.19,-60.95 6.24,19.6 12.3,39.03 18.53,58.67 19.95,-1.34 39.9,-3.07 59.88,-4.86 -16.5,13.06 -32.83,26.15 -49.33,39.07zm159.5 1070.94l0 0c6.69,19.05 13.48,37.97 20.12,56.85 -16.05,-10.17 -32.1,-20.68 -48.16,-31.18 -16.08,14.33 -31.97,28.45 -48.02,42.44 6.65,-20.39 13.43,-40.92 20.12,-61.42 0.13,-0.28 0.27,-0.45 0.41,-0.59 -0.14,0 -0.14,0 -0.28,0 -16.5,-9.75 -32.83,-19.81 -49.3,-29.97 19.78,-1.86 39.62,-3.79 59.43,-6.07 5.52,-20.53 10.85,-41.2 16.33,-61.73 6.07,19.36 12.3,38.48 18.37,57.63 20.11,-2.44 40.06,-4.99 60.18,-7.95 -16.5,14.02 -32.97,27.83 -49.51,41.65 -0.1,0 -0.1,0 -0.27,0 0.17,0.2 0.45,0.34 0.58,0.34zm-0.31 -310.88l0 0c-0.1,0 -0.1,0 -0.27,0 0.17,0 0.45,0.14 0.58,0.14 6.69,19.01 13.48,38.03 20.12,56.91 -16.05,-10.41 -32.1,-20.74 -48.16,-31.39 -16.08,14.33 -31.97,28.63 -48.02,42.62 6.65,-20.4 13.43,-40.9 20.12,-61.43 0.13,-0.13 0.27,-0.31 0.41,-0.44 -0.14,0 -0.14,0 -0.28,0 -16.5,-9.89 -32.83,-20.09 -49.3,-30.29 19.78,-1.79 39.62,-3.79 59.43,-5.92 5.52,-20.5 10.85,-41.17 16.33,-61.7 6.07,19.15 12.3,38.3 18.37,57.46l0 0.14c20.11,-2.42 40.06,-5.17 60.18,-8.03 -16.5,14.16 -32.97,28.11 -49.51,41.93zm0 -310.89l0 0c-0.1,0 -0.1,0 -0.27,0 0.17,0.17 0.45,0.31 0.58,0.45 6.69,19.05 13.48,37.9 20.12,56.74 -16.05,-10.3 -32.1,-20.71 -48.16,-31.35 -16.08,14.33 -31.97,28.59 -48.02,42.58 6.65,-20.36 13.43,-40.89 20.12,-61.42 0.13,-0.14 0.27,-0.28 0.41,-0.63 -0.14,0 -0.14,0 -0.28,0 -16.5,-9.68 -32.83,-19.7 -49.3,-29.9 19.78,-1.89 39.62,-3.79 59.43,-6.06 5.52,-20.57 10.85,-41.24 16.33,-61.74 6.07,19.26 12.3,38.48 18.37,57.6 20.11,-2.44 40.06,-4.99 60.18,-7.88 -16.5,13.95 -32.97,27.8 -49.51,41.61zm0 -310.19l0 0c-0.1,0 -0.1,0 -0.27,0 0.17,0.13 0.45,0.27 0.58,0.27 6.69,18.98 13.48,38 20.12,56.84 -16.05,-10.19 -32.1,-20.67 -48.16,-31.21 -16.08,14.37 -31.97,28.49 -48.02,42.45 6.65,-20.33 13.43,-40.93 20.12,-61.57 0.13,-0.13 0.27,-0.28 0.41,-0.41 -0.14,0 -0.14,0 -0.28,0 -16.5,-9.89 -32.83,-19.95 -49.3,-30.15 19.78,-1.82 39.62,-3.75 59.43,-5.89 5.52,-20.53 10.85,-41.27 16.33,-61.73 6.07,19.12 12.3,38.31 18.37,57.46l0 0.14c20.11,-2.45 40.06,-5.13 60.18,-8.06 -16.5,14.16 -32.97,28.01 -49.51,41.86zm0 -308.93l0 0c-0.1,0 -0.1,0 -0.27,0 0.17,0.14 0.45,0.28 0.58,0.28 6.69,19.02 13.48,38 20.12,56.88 -16.05,-10.2 -32.1,-20.67 -48.16,-31.21 -16.08,14.32 -31.97,28.45 -48.02,42.4 6.65,-20.32 13.43,-40.82 20.12,-61.53 0.13,-0.17 0.27,-0.31 0.41,-0.44 -0.14,0 -0.14,0 -0.28,0 -16.5,-9.86 -32.83,-19.91 -49.3,-30.08 19.78,-1.83 39.62,-3.82 59.43,-6.1 5.52,-20.49 10.85,-41.03 16.33,-61.53 6.07,19.13 12.3,38.31 18.37,57.43 20.11,-2.44 40.06,-4.99 60.18,-7.88 -16.5,14.12 -32.97,27.94 -49.51,41.78zm126.99 1089.03l0 0 0 -0.31 -0.17 0.45c-15.85,14.88 -31.94,29.77 -47.85,44.55 6.68,-20.85 13.43,-41.69 20.11,-62.46 0.18,0 0.32,-0.18 0.45,-0.31 -0.13,0 -0.13,0 -0.27,0 -16.54,-9.1 -32.97,-18.57 -49.47,-27.98 19.77,-2.75 39.79,-5.61 59.56,-8.64 5.48,-20.88 10.86,-41.66 16.33,-62.5 6.1,18.85 12.3,37.86 18.4,56.67 0,0.17 0,0.17 0,0.17 20.05,-3.34 40.07,-6.95 60.15,-10.61 -16.5,14.71 -33.11,29.46 -49.61,43.93l-0.17 0c0.17,0.14 0.48,0.14 0.59,0.28 6.65,18.7 13.33,37.27 19.94,55.94 -16.02,-9.58 -31.94,-19.29 -47.99,-29.18zm180.22 100.46l0 0c6.61,18.4 13.43,36.8 20.08,55.19 -16.06,-8.99 -31.97,-18.08 -48.02,-27.39 0,-0.13 0,-0.13 0,-0.13l-0.14 0.13c-16.02,15.71 -31.94,31.15 -48.03,46.55 6.69,-20.95 13.44,-42.07 20.12,-63.22 0.28,-0.17 0.42,-0.34 0.72,-0.62 -0.13,0 -0.44,0.14 -0.58,0.14 -16.5,-8.48 -32.83,-17.02 -49.3,-25.7 19.81,-3.62 39.62,-7.27 59.43,-11.23 5.47,-20.98 10.85,-42.11 16.36,-63.08 6.03,18.67 12.27,37.38 18.36,56.22 20.06,-4.1 40.04,-8.34 60.16,-12.61 -16.51,15.23 -33.01,30.25 -49.47,45.27 -0.14,0 -0.14,0 -0.31,0.17 0.17,0 0.44,0.17 0.62,0.31zm-0.31 -311.02l0 0c-0.14,0 -0.14,0 -0.31,0.14 0.17,0 0.44,0 0.62,0.17 6.61,18.43 13.43,36.79 20.08,55.19 -16.06,-8.96 -31.97,-18.26 -48.02,-27.49l0 -0.17 -0.14 0.17c-16.02,15.64 -31.94,31.28 -48.03,46.64 6.69,-20.98 13.44,-42.09 20.12,-63.25 0.28,-0.14 0.42,-0.28 0.72,-0.41 -0.13,0 -0.44,0.13 -0.58,0.13 -16.5,-8.68 -32.83,-17.19 -49.3,-26.01 19.81,-3.51 39.62,-7.3 59.43,-11.09 5.47,-20.98 10.85,-42.1 16.36,-63.08 6.03,18.71 12.27,37.41 18.36,56.12l0 0.1c20.06,-4.23 40.04,-8.33 60.16,-12.74 -16.51,15.19 -33.01,30.56 -49.47,45.58zm0 -310.82l0 0c-0.14,0 -0.14,0 -0.31,0.14 0.17,0.14 0.44,0.28 0.62,0.41 6.61,18.4 13.43,36.8 20.08,55.05 -16.06,-8.95 -31.97,-18.25 -48.02,-27.52l-0.14 0c-16.02,15.64 -31.94,31.35 -48.03,46.68 6.69,-20.98 13.44,-41.96 20.12,-63.08 0.28,-0.31 0.42,-0.48 0.72,-0.76 -0.13,0.14 -0.44,0.14 -0.58,0.14 -16.5,-8.54 -32.83,-17.02 -49.3,-25.7 19.81,-3.62 39.62,-7.3 59.43,-11.23 5.47,-21.01 10.85,-42.14 16.36,-63.08 6.03,18.67 12.27,37.38 18.36,56.22 20.06,-4.06 40.04,-8.37 60.16,-12.64 -16.51,15.23 -33.01,30.28 -49.47,45.37zm0 -310.3l0 0c-0.14,0 -0.14,0 -0.31,0.14 0.17,0 0.44,0.17 0.62,0.31 6.61,18.36 13.43,36.79 20.08,55.15 -16.06,-8.92 -31.97,-18.01 -48.02,-27.35 0,0 0,-0.17 0,-0.31 0,0.14 -0.14,0.31 -0.14,0.31 -16.02,15.68 -31.94,31.21 -48.03,46.58 6.69,-21.01 13.44,-42.17 20.12,-63.25 0.28,-0.17 0.42,-0.31 0.72,-0.62 -0.13,0 -0.44,0.13 -0.58,0.13 -16.5,-8.5 -32.83,-17.19 -49.3,-25.8 19.81,-3.68 39.62,-7.3 59.43,-11.13 5.47,-20.94 10.85,-42.09 16.36,-63.07 6.03,18.63 12.27,37.41 18.36,56.08 0,0 0,0.1 0,0.14 20.06,-4.27 40.04,-8.34 60.16,-12.78 -16.51,15.22 -33.01,30.38 -49.47,45.47zm0 -308.89l0 0c-0.14,0 -0.14,0 -0.31,0.18 0.17,0 0.44,0.14 0.62,0.27 6.61,18.4 13.43,36.83 20.08,55.19 -16.06,-8.96 -31.97,-18.08 -48.02,-27.38 0,-0.14 0,-0.14 0,-0.14l-0.14 0.14c-16.02,15.67 -31.94,31.17 -48.03,46.54 6.69,-21.02 13.44,-42.1 20.12,-63.25 0.28,-0.14 0.42,-0.28 0.72,-0.59 -0.13,0 -0.44,0.17 -0.58,0.17 -16.5,-8.57 -32.83,-17.22 -49.3,-25.87 19.81,-3.65 39.62,-7.3 59.43,-11.27 5.47,-20.98 10.85,-41.96 16.36,-62.9 6.03,18.63 12.27,37.38 18.36,56.05 20.06,-4.07 40.04,-8.3 60.16,-12.58 -16.51,15.2 -33.01,30.39 -49.47,45.44z"/>
   <path class="fill-color" fill-rule="nonzero" d="M7881.2 2310.65l0 937c0,0 816.08,-254.25 1491.59,-94.44 0,0 -503.74,-479.41 -1491.59,-842.56z"/>
   <path class="fill-color" fill-rule="nonzero" d="M9924.77 3371.12l-348.65 -159.79c0,0 -572.85,-626.52 -1694.92,-1014.27l0 -100.11 174.88 -51.16c0,0 1120.55,381.06 1868.69,1325.33z"/>
   <path class="fill-color" fill-rule="nonzero" d="M8566.5 1961.97c0,0 902.41,425.26 1358.27,1117.56l0 -856.04c0,0 -515.18,-363.29 -1358.27,-261.52z"/>
   <path class="fill-color" fill-rule="nonzero" d="M9924.77 655.18l0 725.74c0,0 -472.12,-305.1 -1140.33,-261.48 0,0 573.81,-464.68 1140.33,-464.26z"/>
   <path class="fill-color" fill-rule="nonzero" d="M7873.7 175.14l0 995.15c0,0 881.66,-791.75 1622.56,-1053.24 0,0 -521.72,-247.01 -1622.56,58.09z"/>
   <path class="fill-color" fill-rule="nonzero" d="M7898.29 1271.95l353.47 -82.3c0,0 953.95,-742.97 1673.01,-747.79l0 -133.53 -234.82 -125.89c0,0 -726.37,120.99 -1791.66,1089.51z"/>
   <path class="fill-color" fill-rule="nonzero" d="M6144.53 536.01l0 -0.03c-0.55,0 -1.1,-0.07 -1.65,-0.07 -80.07,-3.27 -151.31,-10.54 -213.53,-19.64 -233.23,-38.55 -378.82,-120.02 -378.82,-120.02 -881.36,-483.7 -1284.02,-388.68 -1284.02,-388.68 587.83,-3.65 1220.21,523.51 1220.21,523.51 537.58,457.58 1518.12,849.84 1518.12,849.84l0 -958.8c-345.13,100.66 -636.38,122.88 -860.31,113.89z"/>
   <path class="fill-color" fill-rule="nonzero" d="M7157.39 2107.25l-83.37 25.25c53.4,-15.29 83.37,-25.25 83.37,-25.25z"/>
   <path class="fill-color" fill-rule="nonzero" d="M6598.11 2390.54c-438.01,411.41 -872.23,577.16 -1211.84,636.93 -7.65,1.21 -15.92,2.62 -24.4,4.06 -31.48,5.17 -61.94,9.34 -91.64,12.75 -348.09,34.18 -741.34,-86.78 -741.34,-86.78l-0.21 0.24c-759.78,-209.94 -1692.26,15.19 -2630.12,311.71 -1076.66,340.34 -1835.02,-89.81 -1898.55,-128.05l0 232.2c1038.45,591.35 2515.98,-16.98 2515.98,-16.98 1027.32,-342.48 1740.04,-242.57 2072.56,-153.28l0.04 -0.03c0,0 0.79,0.24 1.17,0.34 12.09,3.27 23.74,6.51 34.83,9.72 167.4,44.2 889.35,206.02 1468.19,-114.66 529.03,-306.64 868.52,-788.06 868.52,-788.06l-363.19 79.89z"/>
   <path class="fill-color" fill-rule="nonzero" d="M5017.02 3424.07c-17.74,-7.92 -35.49,-15.47 -53.26,-23.91 0,0 18.4,10.3 53.26,23.91z"/>
   <path class="fill-color" fill-rule="nonzero" d="M4963.76 3400.16c-29.56,-8.44 72.76,31.49 53.26,23.91 99.77,44.47 199.2,80.92 297.52,110.21l5.44 2.07 1.1 -0.11c890.7,262.69 1683.76,-46.85 1683.76,-46.85l0 -902.72c-1129.78,1137.74 -2041.08,813.49 -2041.08,813.49z"/>
   <path class="fill-color" fill-rule="nonzero" d="M6313.41 2434.6c-658.36,104.66 -1290.12,-213.94 -1414.63,-281.46 -350.91,-161.78 -620.04,-207.36 -679.54,-215.94 -398.19,-49.37 -961.73,-13.88 -1746.83,249.94 -1710.42,574.78 -2411.41,53.64 -2472.4,3.76l0 288.32c507.64,295.86 1158.86,434.49 2581.37,-1.48 1543.88,-473.19 2349.38,68.59 2349.38,68.59 -973.31,-261.52 -1564.94,-133.98 -2952.27,236.44 -1318.37,352.02 -1922.35,-69.87 -1978.48,-112.7l0 232.62c315.82,266.1 1169.26,380.17 2094.68,141.56 809.05,-208.57 1618.05,-411.59 2340.94,-250.22l0.07 -0.04c0,0 0.27,0.11 0.75,0.25 48.92,10.92 97.47,23.6 145.59,37.93 0,0 86.75,26.42 200.58,48.64 45.27,10.1 110.1,21.19 191.06,26.87 4.27,0.31 8.55,0.59 12.82,0.87 6.95,0.41 14.05,0.79 21.29,1.13 3.03,0.14 6.2,0.41 9.23,0.52l-0.07 -0.14c236.61,9.89 592.07,-29.63 1008.86,-252.87 122.37,-62.32 246.4,-140.08 368.9,-237.61 -27.35,5.69 -54.43,10.61 -81.3,15.02z"/>
  </g>
 </g>
</svg>
